<?xml version="1.0" encoding="UTF-8"?>
<svg width="200" height="200" viewBox="100 50 260 220" xmlns="http://www.w3.org/2000/svg">
  <defs>
    <linearGradient id="grad1" x1="0%" y1="0%" x2="100%" y2="100%">
      <stop offset="0%" style="stop-color:#5f9cff"></stop>
      <stop offset="100%" style="stop-color:#3a6bff"></stop>
    </linearGradient>
    <linearGradient id="grad2" x1="0%" y1="0%" x2="100%" y2="100%">
      <stop offset="0%" style="stop-color:#34d399"></stop>
      <stop offset="100%" style="stop-color:#059669"></stop>
    </linearGradient>
    <linearGradient id="grad3" x1="0%" y1="0%" x2="100%" y2="100%">
      <stop offset="0%" style="stop-color:#fbbf24"></stop>
      <stop offset="100%" style="stop-color:#f59e0b"></stop>
    </linearGradient>
  </defs>
  <path d="M150 200 C100 150, 120 80, 200 80 C260 80, 280 150, 240 200 C210 240, 170 240, 150 200 Z" fill="url(#grad1)"></path>
  <path d="M220 210 C180 170, 200 120, 270 120 C330 120, 350 180, 310 220 C280 260, 240 250, 220 210 Z" fill="url(#grad2)"></path>
  <path d="M190 140 C160 110, 190 60, 250 60 C300 60, 320 110, 290 140 C260 170, 220 170, 190 140 Z" fill="url(#grad3)"></path>
</svg>